<svg width="15" height="15" viewBox="0 0 15 15" fill="none" xmlns="http://www.w3.org/2000/svg">
<path d="M14.0078 1.43359C14.3542 1.50651 14.5273 1.71615 14.5273 2.0625C14.5273 5.5625 13.2878 8.55208 10.8086 11.0312C8.32943 13.5104 5.33984 14.75 1.83984 14.75C1.49349 14.75 1.28385 14.5768 1.21094 14.2305L0.554688 11.3867C0.463542 11.0404 0.591146 10.7943 0.9375 10.6484L4 9.33594C4.29167 9.20833 4.54688 9.27214 4.76562 9.52734L6.10547 11.168C7.18099 10.6758 8.12891 10.0104 8.94922 9.17188C9.78776 8.33333 10.4531 7.38542 10.9453 6.32812L9.30469 4.96094C9.04948 4.76042 8.98568 4.50521 9.11328 4.19531L10.4258 1.13281C10.5716 0.804688 10.8177 0.686198 11.1641 0.777344L14.0078 1.43359Z" fill="#E8C300"/>
</svg>
