<svg width="15" height="11" viewBox="0 0 15 11" fill="none" xmlns="http://www.w3.org/2000/svg">
<path d="M14.3438 3.97266C14.3984 3.91797 14.4531 3.90885 14.5078 3.94531C14.5807 3.98177 14.6172 4.03646 14.6172 4.10938V9.6875C14.6172 10.0521 14.4896 10.362 14.2344 10.6172C13.9792 10.8724 13.6693 11 13.3047 11H1.92969C1.5651 11 1.25521 10.8724 1 10.6172C0.744792 10.362 0.617188 10.0521 0.617188 9.6875V4.10938C0.617188 4.03646 0.644531 3.99089 0.699219 3.97266C0.772135 3.9362 0.835938 3.9362 0.890625 3.97266C1.49219 4.42839 2.89583 5.45833 5.10156 7.0625C5.13802 7.09896 5.25651 7.19922 5.45703 7.36328C5.67578 7.52734 5.84896 7.65495 5.97656 7.74609C6.10417 7.81901 6.26823 7.91927 6.46875 8.04688C6.66927 8.15625 6.86068 8.23828 7.04297 8.29297C7.24349 8.34766 7.4349 8.375 7.61719 8.375C7.78125 8.375 7.94531 8.35677 8.10938 8.32031C8.27344 8.26562 8.42839 8.21094 8.57422 8.15625C8.72005 8.08333 8.875 7.99219 9.03906 7.88281C9.20312 7.77344 9.33984 7.68229 9.44922 7.60938C9.55859 7.51823 9.6862 7.41797 9.83203 7.30859C9.97786 7.19922 10.0781 7.11719 10.1328 7.0625C12.2839 5.51302 13.6875 4.48307 14.3438 3.97266ZM7.61719 7.5C7.47135 7.5 7.28906 7.45443 7.07031 7.36328C6.86979 7.25391 6.70573 7.16276 6.57812 7.08984C6.45052 6.9987 6.25911 6.86198 6.00391 6.67969C5.76693 6.47917 5.63932 6.37891 5.62109 6.37891C3.39714 4.75651 1.8112 3.58073 0.863281 2.85156C0.699219 2.72396 0.617188 2.55078 0.617188 2.33203V1.8125C0.617188 1.44792 0.744792 1.13802 1 0.882812C1.25521 0.627604 1.5651 0.5 1.92969 0.5H13.3047C13.6693 0.5 13.9792 0.627604 14.2344 0.882812C14.4896 1.13802 14.6172 1.44792 14.6172 1.8125V2.33203C14.6172 2.55078 14.5352 2.72396 14.3711 2.85156C13.4779 3.54427 11.8919 4.72005 9.61328 6.37891C9.59505 6.37891 9.45833 6.47917 9.20312 6.67969C8.96615 6.86198 8.78385 6.9987 8.65625 7.08984C8.52865 7.16276 8.35547 7.25391 8.13672 7.36328C7.9362 7.45443 7.76302 7.5 7.61719 7.5Z" fill="#E8C300"/>
</svg>
