<svg width="11" height="15" viewBox="0 0 11 15" fill="none" xmlns="http://www.w3.org/2000/svg">
<path d="M5.20312 14.4766C4.76562 13.8385 4.26432 13.1185 3.69922 12.3164C3.15234 11.5143 2.76042 10.9492 2.52344 10.6211C2.28646 10.293 2.01302 9.89193 1.70312 9.41797C1.39323 8.92578 1.18359 8.57943 1.07422 8.37891C0.983073 8.17839 0.873698 7.92318 0.746094 7.61328C0.636719 7.30339 0.563802 7.03906 0.527344 6.82031C0.509115 6.58333 0.5 6.3099 0.5 6C0.5 4.54167 1.01042 3.30208 2.03125 2.28125C3.05208 1.26042 4.29167 0.75 5.75 0.75C7.20833 0.75 8.44792 1.26042 9.46875 2.28125C10.4896 3.30208 11 4.54167 11 6C11 6.3099 10.9818 6.58333 10.9453 6.82031C10.9271 7.03906 10.8542 7.30339 10.7266 7.61328C10.6172 7.92318 10.5078 8.17839 10.3984 8.37891C10.3073 8.57943 10.1068 8.92578 9.79688 9.41797C9.48698 9.89193 9.21354 10.293 8.97656 10.6211C8.73958 10.9492 8.33854 11.5143 7.77344 12.3164C7.22656 13.1185 6.73438 13.8385 6.29688 14.4766C6.16927 14.6589 5.98698 14.75 5.75 14.75C5.51302 14.75 5.33073 14.6589 5.20312 14.4766ZM4.19141 7.55859C4.62891 7.97786 5.14844 8.1875 5.75 8.1875C6.35156 8.1875 6.86198 7.97786 7.28125 7.55859C7.71875 7.12109 7.9375 6.60156 7.9375 6C7.9375 5.39844 7.71875 4.88802 7.28125 4.46875C6.86198 4.03125 6.35156 3.8125 5.75 3.8125C5.14844 3.8125 4.62891 4.03125 4.19141 4.46875C3.77214 4.88802 3.5625 5.39844 3.5625 6C3.5625 6.60156 3.77214 7.12109 4.19141 7.55859Z" fill="#E8C300"/>
</svg>
