<svg width="13" height="9" viewBox="0 0 13 9" fill="none" xmlns="http://www.w3.org/2000/svg">
<path d="M5.62193 8.25L0.309435 2.9375C0.127143 2.75521 0.0359974 2.53385 0.0359974 2.27344C0.0359974 2.01302 0.127143 1.79167 0.309435 1.60938L1.20787 0.75C1.39016 0.567708 1.61152 0.476562 1.87193 0.476562C2.13235 0.476562 2.35371 0.567708 2.536 0.75L6.286 4.5L10.036 0.75C10.2183 0.567708 10.4396 0.476562 10.7001 0.476562C10.9605 0.476562 11.1818 0.567708 11.3641 0.75L12.2626 1.60938C12.4449 1.79167 12.536 2.01302 12.536 2.27344C12.536 2.53385 12.4449 2.75521 12.2626 2.9375L6.95006 8.25C6.76777 8.43229 6.54641 8.52344 6.286 8.52344C6.02558 8.52344 5.80423 8.43229 5.62193 8.25Z" fill="#8C8C8C"/>
</svg>
